<?xml version="1.0" encoding="utf-8"?>
<!-- Generator: Adobe Illustrator 16.0.0, SVG Export Plug-In . SVG Version: 6.00 Build 0)  -->
<!DOCTYPE svg PUBLIC "-//W3C//DTD SVG 1.1//EN" "http://www.w3.org/Graphics/SVG/1.1/DTD/svg11.dtd">
<svg version="1.1" id="Capa_1" xmlns="http://www.w3.org/2000/svg" xmlns:xlink="http://www.w3.org/1999/xlink" x="0px" y="0px"
	 width="31.891px" height="31.891px" viewBox="0 0 31.891 31.891" enable-background="new 0 0 31.891 31.891" xml:space="preserve">
<circle fill="#010002" cx="15.324" cy="5.463" r="2.512"/>
<path fill="#010002" d="M17.978,16.159c-0.463,0.182-0.938,0.384-1.433,0.612l-0.041,0.018c-1.155,0.496-2.42,0.842-3.693,1.025
	V29.36c0,0.586,0.477,1.062,1.063,1.062s1.064-0.477,1.064-1.062v-9.787c0.148,0.027,0.3,0.041,0.456,0.041
	c0.156,0,0.308-0.014,0.456-0.041v6.143c0,0.586,0.477,1.062,1.063,1.062c0.588,0,1.064-0.477,1.064-1.062"/>
<path fill="#010002" d="M12.497,10.786c0.093,0.093,0.201,0.163,0.313,0.214v3.238c0.776-0.148,1.811-0.622,2.513-0.921
	c1.02-0.471,1.71-0.923,2.654-1.226v-1.135c0-0.105-0.009-0.208-0.021-0.309L23.404,5.2c0.415-0.415,0.415-1.088,0-1.504
	c-0.414-0.415-1.088-0.415-1.503,0l-5.098,5.098c-0.405-0.264-0.889-0.419-1.408-0.419c-0.641,0-1.227,0.235-1.678,0.622l-5.3-5.3
	c-0.415-0.415-1.088-0.415-1.504,0s-0.416,1.089,0,1.504L12.497,10.786z"/>
<path fill="#010002" d="M28.873,12.537c-1.749-1.06-2.186-1.331-4.794-1.174c-2.934,0.177-5.465,0.936-8.459,2.541
	c-1.988,0.992-4.432,1.419-6.404,1.115c-1.17-0.163-2.259-0.998-3.412-1.881c-0.468-0.359-0.951-0.73-1.448-1.059l-1.338,2.027
	c0.425,0.281,0.853,0.609,1.308,0.958c1.29,0.99,2.751,2.11,4.538,2.356c0.776,0.121,1.599,0.154,2.439,0.104
	c1.83-0.109,3.739-0.611,5.421-1.456l0.03-0.017c2.706-1.45,4.871-2.106,7.471-2.263c1.866,0.048,1.899-0.079,3.543,0.918"/>
</svg>
