<?xml version="1.0" encoding="utf-8"?>
<!-- Generator: Adobe Illustrator 16.0.0, SVG Export Plug-In . SVG Version: 6.00 Build 0)  -->
<!DOCTYPE svg PUBLIC "-//W3C//DTD SVG 1.1//EN" "http://www.w3.org/Graphics/SVG/1.1/DTD/svg11.dtd">
<svg version="1.1" id="Capa_1" xmlns="http://www.w3.org/2000/svg" xmlns:xlink="http://www.w3.org/1999/xlink" x="0px" y="0px"
	 width="612px" height="792px" viewBox="0 0 612 792" enable-background="new 0 0 612 792" xml:space="preserve">
<path fill="#010002" d="M221.761,242.459c0-25.537,20.708-46.245,46.245-46.245c25.538,0,46.234,20.708,46.234,46.245
	c0,25.538-20.696,46.245-46.234,46.245C242.468,288.704,221.761,267.997,221.761,242.459z"/>
<path fill="#010002" d="M316.851,439.393c-8.512,3.333-17.265,7.06-26.368,11.267l-0.743,0.327
	c-21.276,9.125-44.562,15.518-68.001,18.894v212.549c0,10.808,8.775,19.571,19.582,19.571c10.796,0,19.582-8.764,19.582-19.571
	V502.236c2.731,0.491,5.518,0.765,8.381,0.765c2.885,0,5.671-0.273,8.403-0.765v113.076c0,10.808,8.775,19.582,19.582,19.582
	s19.582-8.774,19.582-19.582"/>
<path fill="#010002" d="M215.969,340.467c1.705,1.716,3.683,2.994,5.77,3.934V404c14.271-2.721,33.334-11.444,46.261-16.952
	c18.762-8.654,31.477-16.975,48.851-22.548v-20.897c0-1.934-0.163-3.825-0.382-5.693L416.76,237.629
	c7.639-7.638,7.639-20.03,0-27.69c-7.627-7.649-20.04-7.649-27.668,0l-93.855,93.845c-7.463-4.863-16.358-7.726-25.931-7.726
	c-11.801,0-22.587,4.327-30.892,11.452l-97.571-97.571c-7.638-7.649-20.041-7.649-27.69,0c-7.66,7.638-7.66,20.041,0,27.69
	L215.969,340.467z"/>
<path fill="#010002" d="M517.46,372.714c-32.214-19.527-40.251-24.503-88.266-21.618c-54.014,3.246-100.608,17.232-155.737,46.781
	c-36.596,18.259-81.584,26.148-117.896,20.521c-21.538-2.983-41.59-18.369-62.811-34.629c-8.622-6.6-17.517-13.43-26.652-19.473
	l-24.652,37.329c7.824,5.179,15.713,11.222,24.073,17.625c23.734,18.228,50.648,38.869,83.551,43.415
	c14.282,2.218,29.438,2.819,44.89,1.891c33.689-2.021,68.842-11.277,99.811-26.827l0.558-0.284
	c49.839-26.717,89.681-38.803,137.554-41.666c34.355,0.885,34.975-1.452,65.222,16.885"/>
</svg>
