<?xml version="1.0" encoding="utf-8"?>
<!-- Generator: Adobe Illustrator 16.0.0, SVG Export Plug-In . SVG Version: 6.00 Build 0)  -->
<!DOCTYPE svg PUBLIC "-//W3C//DTD SVG 1.1//EN" "http://www.w3.org/Graphics/SVG/1.1/DTD/svg11.dtd">
<svg version="1.1" id="Capa_1" xmlns="http://www.w3.org/2000/svg" xmlns:xlink="http://www.w3.org/1999/xlink" x="0px" y="0px"
	 width="31.891px" height="31.891px" viewBox="0 0 31.891 31.891" enable-background="new 0 0 31.891 31.891" xml:space="preserve">
<g>
	<g id="Layer_1_31_">
		<g>
			<path d="M15.946,5.657c-4.985,0.001-9.041,3.923-9.041,8.742c0,3.127,1.269,4.989,2.203,6.36c0.576,0.844,0.9,1.345,0.9,1.85
				c0,1.135,0.608,2.204,1.689,3.005c0.027,0.673,0.125,2.314,0.125,2.314v0.001c0.019,0.467,0.263,1.422,1.87,1.956
				c0.189,0.279,0.437,0.525,0.739,0.728c0.188,0.126,0.41,0.194,0.638,0.194h1.75c0.228,0,0.45-0.066,0.639-0.194
				c0.302-0.203,0.551-0.448,0.739-0.728c1.619-0.539,1.855-1.507,1.869-1.959c0,0,0.099-1.639,0.126-2.312
				c1.079-0.802,1.688-1.87,1.688-3.004c0-0.505,0.325-1.008,0.905-1.857c0.928-1.36,2.2-3.224,2.2-6.354
				C24.987,9.578,20.93,5.657,15.946,5.657z M20.893,19.47c-0.667,0.979-1.298,1.903-1.298,3.138c0,0.544-0.491,0.98-0.856,1.233
				h-5.587c-0.365-0.252-0.856-0.689-0.856-1.233c0-1.234-0.631-2.158-1.305-3.149c-0.844-1.236-1.8-2.638-1.8-5.059
				c0-3.559,3.03-6.455,6.755-6.456c3.726,0,6.756,2.896,6.756,6.455C22.702,16.824,21.743,18.225,20.893,19.47z"/>
			<path d="M15.946,3.942c0.315,0,0.571-0.255,0.571-0.572V1.655c0-0.315-0.256-0.571-0.571-0.571s-0.571,0.256-0.571,0.571V3.37
				C15.375,3.686,15.631,3.942,15.946,3.942z"/>
			<path d="M9.873,5.151c0.106,0.184,0.298,0.286,0.495,0.286c0.097,0,0.196-0.024,0.286-0.076c0.274-0.158,0.367-0.507,0.209-0.781
				l-0.857-1.485C9.847,2.821,9.498,2.727,9.225,2.885C8.951,3.043,8.857,3.392,9.015,3.666L9.873,5.151z"/>
			<path d="M6.571,8.452L5.087,7.595C4.812,7.438,4.464,7.531,4.305,7.805C4.148,8.078,4.241,8.427,4.514,8.586l1.485,0.857
				c0.09,0.052,0.188,0.077,0.286,0.077c0.198,0,0.389-0.103,0.496-0.286C6.938,8.96,6.844,8.61,6.571,8.452z"/>
			<path d="M5.362,14.525c0-0.315-0.256-0.571-0.572-0.571H3.076c-0.316,0-0.572,0.256-0.572,0.571s0.256,0.572,0.572,0.572H4.79
				C5.106,15.097,5.362,14.841,5.362,14.525z"/>
			<path d="M5.999,19.607l-1.485,0.857c-0.273,0.158-0.368,0.508-0.21,0.779C4.409,21.427,4.602,21.53,4.8,21.53
				c0.096,0,0.195-0.024,0.285-0.076l1.484-0.855c0.274-0.158,0.368-0.509,0.21-0.781C6.623,19.543,6.273,19.449,5.999,19.607z"/>
			<path d="M27.378,20.466l-1.484-0.858c-0.275-0.158-0.624-0.064-0.782,0.209s-0.064,0.624,0.209,0.782l1.484,0.855
				c0.092,0.053,0.189,0.076,0.286,0.076c0.198,0,0.39-0.103,0.495-0.284C27.744,20.973,27.65,20.623,27.378,20.466z"/>
			<path d="M28.815,13.954h-1.713l0,0c-0.316,0-0.572,0.256-0.572,0.57c0,0.316,0.256,0.572,0.571,0.572l1.714,0.001l0,0
				c0.315,0,0.571-0.257,0.571-0.571C29.386,14.211,29.132,13.954,28.815,13.954z"/>
			<path d="M25.606,9.519c0.098,0,0.195-0.025,0.286-0.077l1.484-0.856c0.273-0.157,0.367-0.507,0.209-0.78
				c-0.157-0.274-0.507-0.367-0.78-0.209l-1.483,0.855c-0.275,0.158-0.369,0.508-0.211,0.781
				C25.218,9.416,25.409,9.519,25.606,9.519z"/>
			<path d="M21.238,5.359c0.09,0.053,0.188,0.077,0.285,0.077c0.196,0,0.39-0.103,0.495-0.286l0.856-1.484
				c0.158-0.273,0.065-0.623-0.209-0.78c-0.274-0.159-0.623-0.065-0.781,0.209l-0.856,1.484C20.871,4.851,20.965,5.201,21.238,5.359
				z"/>
			<path d="M15.179,17.977c0.069,0.506,0.313,0.646,0.767,0.646c0.451,0,0.697-0.14,0.766-0.646l0.542-4.076
				c0.033-0.278,0.067-0.558,0.067-0.819v-2.021c0-0.888-0.505-1.341-1.376-1.341c-0.871,0-1.377,0.453-1.377,1.341v2.021
				c0,0.261,0.035,0.541,0.071,0.819L15.179,17.977z"/>
			<path d="M15.946,19.754c-0.785,0-1.429,0.646-1.429,1.43s0.645,1.428,1.429,1.428c0.783,0,1.428-0.644,1.428-1.428
				C17.375,20.399,16.729,19.754,15.946,19.754z"/>
		</g>
	</g>
</g>
</svg>
