<?xml version="1.0" encoding="utf-8"?>
<!-- Generator: Adobe Illustrator 16.0.0, SVG Export Plug-In . SVG Version: 6.00 Build 0)  -->
<!DOCTYPE svg PUBLIC "-//W3C//DTD SVG 1.1//EN" "http://www.w3.org/Graphics/SVG/1.1/DTD/svg11.dtd">
<svg version="1.1" id="Capa_1" xmlns="http://www.w3.org/2000/svg" xmlns:xlink="http://www.w3.org/1999/xlink" x="0px" y="0px"
	 width="31.891px" height="31.891px" viewBox="0 0 31.891 31.891" enable-background="new 0 0 31.891 31.891" xml:space="preserve">
<g>
	<path d="M17.052,2.788h-0.676c-0.36,0-0.653-0.292-0.653-0.653V2.113c0-0.838-0.68-1.518-1.517-1.518h-0.036
		c-0.838,0-1.517,0.679-1.517,1.518v0.022c0,0.361-0.293,0.653-0.653,0.653h-0.676c-0.719,0-1.303,0.583-1.303,1.303v0.026
		c0,0.719,0.584,1.302,1.303,1.302h5.729c0.719,0,1.302-0.583,1.302-1.302V4.091C18.355,3.372,17.772,2.788,17.052,2.788z
		 M14.188,2.788c-0.362,0-0.657-0.294-0.657-0.658s0.295-0.658,0.657-0.658c0.363,0,0.658,0.294,0.658,0.658
		S14.552,2.788,14.188,2.788z M17.117,28.225H6.075c-0.969,0-1.754-0.786-1.754-1.755V5.42c0-0.969,0.786-1.754,1.315-1.754h3.555
		c-0.03,0.146-0.046,0.297-0.046,0.452c0,1.202,0.978,2.18,2.18,2.18h5.728c1.202,0,2.18-0.978,2.18-2.206
		c0-0.146-0.015-0.288-0.043-0.426h2.674c1.408,0,2.193,0.786,2.193,1.754v13.179c-0.146-0.009-0.29-0.021-0.438-0.021
		c-0.606,0-1.192,0.085-1.755,0.23V8.49H6.514v17.542h10.109C16.672,26.803,16.84,27.541,17.117,28.225z M23.618,19.892
		c-3.148,0-5.701,2.553-5.701,5.701s2.553,5.701,5.701,5.701s5.701-2.553,5.701-5.701S26.766,19.892,23.618,19.892z M27.343,24.423
		l-3.508,3.946c-0.173,0.195-0.413,0.294-0.656,0.294c-0.192,0-0.386-0.062-0.548-0.191l-2.192-1.755
		c-0.378-0.302-0.439-0.854-0.137-1.232c0.303-0.379,0.854-0.439,1.232-0.137l1.542,1.233l2.956-3.324
		c0.321-0.362,0.876-0.395,1.238-0.073C27.633,23.506,27.665,24.059,27.343,24.423z M19.671,15.945h-7.017
		c-0.243,0-0.438-0.195-0.438-0.438v-0.438c0-0.242,0.195-0.438,0.438-0.438h7.017c0.242,0,0.438,0.196,0.438,0.438v0.438
		C20.109,15.75,19.913,15.945,19.671,15.945z M19.671,11.998h-7.017c-0.243,0-0.438-0.196-0.438-0.438v-0.438
		c0-0.242,0.195-0.438,0.438-0.438h7.017c0.242,0,0.438,0.196,0.438,0.438v0.438C20.109,11.802,19.913,11.998,19.671,11.998z
		 M17.478,19.454h-4.824c-0.243,0-0.438-0.196-0.438-0.438v-0.438c0-0.243,0.195-0.439,0.438-0.439h4.824
		c0.241,0,0.438,0.196,0.438,0.439v0.438C17.917,19.258,17.719,19.454,17.478,19.454z M16.6,23.401h-3.946
		c-0.243,0-0.438-0.197-0.438-0.438v-0.439c0-0.242,0.195-0.438,0.438-0.438H16.6c0.242,0,0.439,0.196,0.439,0.438v0.439
		C17.04,23.204,16.843,23.401,16.6,23.401z M11.376,10.376L9.76,12.193c-0.079,0.09-0.19,0.136-0.302,0.136
		c-0.089,0-0.178-0.029-0.252-0.089l-1.01-0.808c-0.175-0.139-0.202-0.393-0.062-0.567c0.138-0.174,0.393-0.202,0.567-0.063
		l0.71,0.568l1.36-1.531c0.147-0.167,0.402-0.182,0.57-0.034C11.509,9.954,11.523,10.21,11.376,10.376z M11.376,14.278L9.76,16.095
		c-0.079,0.089-0.19,0.136-0.302,0.136c-0.089,0-0.178-0.029-0.252-0.089l-1.01-0.808c-0.175-0.14-0.202-0.394-0.062-0.567
		c0.138-0.175,0.393-0.203,0.567-0.063l0.71,0.568l1.36-1.53c0.147-0.167,0.402-0.183,0.57-0.034
		C11.509,13.856,11.523,14.111,11.376,14.278z M11.376,18.01L9.76,19.827c-0.079,0.089-0.19,0.136-0.302,0.136
		c-0.089,0-0.178-0.029-0.252-0.089l-1.01-0.808c-0.175-0.14-0.202-0.394-0.062-0.567c0.138-0.175,0.393-0.203,0.567-0.063
		l0.71,0.568l1.36-1.53c0.147-0.168,0.402-0.182,0.57-0.034C11.509,17.588,11.523,17.843,11.376,18.01z M11.376,21.767L9.76,23.585
		c-0.079,0.09-0.19,0.135-0.302,0.135c-0.089,0-0.178-0.028-0.252-0.088l-1.01-0.808c-0.175-0.14-0.202-0.394-0.062-0.567
		c0.138-0.175,0.393-0.202,0.567-0.063l0.71,0.568l1.36-1.53c0.147-0.167,0.402-0.183,0.57-0.034
		C11.509,21.345,11.523,21.601,11.376,21.767z"/>
</g>
</svg>
