<?xml version="1.0" encoding="utf-8"?>
<!-- Generator: Adobe Illustrator 16.0.0, SVG Export Plug-In . SVG Version: 6.00 Build 0)  -->
<!DOCTYPE svg PUBLIC "-//W3C//DTD SVG 1.1//EN" "http://www.w3.org/Graphics/SVG/1.1/DTD/svg11.dtd">
<svg version="1.1" id="Capa_1" xmlns="http://www.w3.org/2000/svg" xmlns:xlink="http://www.w3.org/1999/xlink" x="0px" y="0px"
	 width="31.891px" height="31.891px" viewBox="0 0 31.891 31.891" enable-background="new 0 0 31.891 31.891" xml:space="preserve">
<g>
	<path d="M17.384,24.974c0.398,0.336,1.084,0.502,2.062,0.502l0.264,0.005v0.915h0.934v-0.915l0.286-0.005
		c0.979,0,1.666-0.178,2.061-0.528c0.396-0.347,0.589-0.955,0.589-1.824c0-0.803-0.177-1.358-0.536-1.659
		c-0.364-0.304-1.058-0.482-2.091-0.538l-0.306-0.011v-2.052h0.218c0.759,0,1.139,0.305,1.139,0.912l0.005,0.147h1.339v-0.187
		c0-0.808-0.189-1.358-0.573-1.654c-0.381-0.297-1.092-0.444-2.13-0.444v-0.795h-0.934v0.795c-1.089,0-1.831,0.155-2.23,0.467
		c-0.402,0.308-0.599,0.883-0.599,1.725c0,0.866,0.2,1.458,0.596,1.771c0.401,0.314,1.142,0.475,2.233,0.475v2.223l-0.205-0.006
		c-0.56,0-0.922-0.077-1.081-0.22c-0.161-0.147-0.239-0.473-0.239-0.979v-0.143h-1.387l-0.009,0.278
		C16.789,24.058,16.988,24.64,17.384,24.974z M20.642,22.124c0.626,0,1.038,0.066,1.235,0.2c0.198,0.132,0.298,0.406,0.298,0.825
		c0,0.763-0.445,1.146-1.333,1.146h-0.2V22.124z M19.504,20.859c-0.819,0-1.226-0.34-1.226-1.021c0-0.649,0.407-0.974,1.23-0.974
		l0.2-0.01v2.014C19.578,20.863,19.512,20.859,19.504,20.859z M20.088,31.199c5.282,0,9.579-4.297,9.579-9.577
		c0-5.282-4.297-9.579-9.579-9.579c-5.284,0-9.58,4.297-9.58,9.579C10.507,26.902,14.803,31.199,20.088,31.199z M20.088,13.582
		c4.433,0,8.039,3.608,8.039,8.036c0,4.43-3.608,8.039-8.039,8.039s-8.039-3.607-8.039-8.039
		C12.049,17.189,15.654,13.582,20.088,13.582z M20.088,28.961c4.049,0,7.341-3.292,7.341-7.341c0-4.051-3.292-7.344-7.341-7.344
		c-4.051,0-7.346,3.293-7.346,7.344C12.742,25.669,16.037,28.961,20.088,28.961z M20.088,14.893c3.709,0,6.726,3.016,6.726,6.727
		c0,3.709-3.017,6.726-6.726,6.726c-3.711,0-6.729-3.017-6.729-6.726C13.358,17.909,16.376,14.893,20.088,14.893z M15.469,14.71
		c-0.513,0.503-1.338,0.497-1.845-0.016l-3.56-3.624v17.92c0,0.959-0.779,1.74-1.739,1.74c-0.606,0-1.138-0.311-1.449-0.782
		c-0.311,0.471-0.844,0.782-1.45,0.782c-0.959,0-1.738-0.781-1.738-1.74v-9.642c-0.138,0.049-0.282,0.08-0.434,0.08
		c-0.72,0-1.303-0.584-1.303-1.301V9.65c0-0.72,0.584-1.304,1.303-1.304h2.81l0.492,0.657l-0.902,5.11l1.223,1.152l1.222-1.152
		l-0.902-5.11l0.492-0.657h2.811c0.349,0,0.684,0.141,0.929,0.391l4.057,4.13C15.989,13.379,15.982,14.204,15.469,14.71z
		 M3.91,3.552c0-1.871,1.328-2.861,2.967-2.861c1.638,0,2.965,0.99,2.965,2.861c0,1.87-1.328,3.906-2.965,3.906
		C5.237,7.459,3.91,5.422,3.91,3.552z"/>
</g>
</svg>
