<?xml version="1.0" encoding="utf-8"?>
<!-- Generator: Adobe Illustrator 16.0.0, SVG Export Plug-In . SVG Version: 6.00 Build 0)  -->
<!DOCTYPE svg PUBLIC "-//W3C//DTD SVG 1.1//EN" "http://www.w3.org/Graphics/SVG/1.1/DTD/svg11.dtd">
<svg version="1.1" id="Capa_1" xmlns="http://www.w3.org/2000/svg" xmlns:xlink="http://www.w3.org/1999/xlink" x="0px" y="0px"
	 width="48px" height="48px" viewBox="0 0 48 48" enable-background="new 0 0 48 48" xml:space="preserve">
<path fill="#F2F2F2" d="M28.166,15.885c0,6.783-5.498,12.281-12.281,12.281l0,0c-6.783,0-12.281-5.498-12.281-12.281l0,0
	c0-6.783,5.499-12.281,12.281-12.281l0,0C22.668,3.603,28.166,9.102,28.166,15.885L28.166,15.885z"/>
<circle fill="#54BA89" cx="14.997" cy="9.965" r="1.531"/>
<circle fill="#5880C0" cx="21.833" cy="17.599" r="1.361"/>
<path fill="#5B8ED8" d="M7.881,18.072c0,0-0.574,0.16-0.511,0.797c0.064,0.638,0.639,0.639,0.639,0.639l9.427,0.026l-1.083-2.096
	L7.881,18.072z"/>
<path fill="#5880C0" d="M24.302,19.021c-0.287-0.567-0.759-0.343-0.759-0.343l-1.875,0.862c0,0-2.043-2.138-2.267-2.25
	c-0.223-0.112-0.415-0.047-0.415-0.047l-2.633,0.197l1.083,2.096l1.83,0.006c0,0,1.379,1.181,1.858,1.373c0.48,0.191,0.67,0,0.67,0
	l2.427-1.021C24.223,19.891,24.574,19.556,24.302,19.021z"/>
<path fill="#54BA89" d="M17.496,16.62c0,0,0.504,0.239,0.837-0.168c0.336-0.406,0.096-0.773,0.096-0.773s-3.758-4.061-4.643-4.061
	c-0.14,0-0.266,0.041-0.388,0.1l1.601,3.096v-0.229L17.496,16.62z"/>
<path fill="#5CD69F" d="M11.656,17.242l3.342-0.216v-2.212l-1.601-3.096C11.904,12.441,11.656,17.242,11.656,17.242z"/>
<path fill="#9E9E9E" d="M19.271,20.997c0,0,0.322,0,0.322-0.595c0-0.446-0.318-0.446-0.318-0.446h-1.622l0.538,1.042H19.271z"/>
<path fill="#ACACAD" d="M7.366,20.521c0,0.477,0.452,0.477,0.452,0.477h1.049l0.004,3.043h1.501l-0.015-3.043h6.174v3.043h1.595
	l0.031-3.043h0.034l-0.538-1.042H7.818C7.818,19.956,7.366,19.956,7.366,20.521z"/>
</svg>
