<?xml version="1.0" encoding="utf-8"?>
<!-- Generator: Adobe Illustrator 16.0.0, SVG Export Plug-In . SVG Version: 6.00 Build 0)  -->
<!DOCTYPE svg PUBLIC "-//W3C//DTD SVG 1.1//EN" "http://www.w3.org/Graphics/SVG/1.1/DTD/svg11.dtd">
<svg version="1.1" id="Capa_1" xmlns="http://www.w3.org/2000/svg" xmlns:xlink="http://www.w3.org/1999/xlink" x="0px" y="0px"
	 width="48px" height="48px" viewBox="0 0 48 48" enable-background="new 0 0 48 48" xml:space="preserve">
<path fill="#F2F2F2" d="M28.166,15.885c0,6.783-5.498,12.281-12.281,12.281l0,0c-6.783,0-12.281-5.498-12.281-12.281l0,0
	c0-6.783,5.499-12.281,12.281-12.281l0,0C22.668,3.603,28.166,9.102,28.166,15.885L28.166,15.885z"/>
<g>
	<rect x="9.81" y="10.917" fill="#BFCED1" width="12.151" height="12.585"/>
	<rect x="14.583" y="20.031" fill="#434854" width="2.603" height="3.472"/>
	<g>
		<rect x="14.583" y="17.427" fill="#469FCC" width="2.603" height="1.736"/>
		<rect x="11.111" y="17.427" fill="#469FCC" width="2.604" height="1.736"/>
		<rect x="11.111" y="20.031" fill="#469FCC" width="2.604" height="1.736"/>
		<rect x="18.055" y="17.427" fill="#469FCC" width="2.604" height="1.736"/>
		<rect x="18.055" y="20.031" fill="#469FCC" width="2.604" height="1.736"/>
		<rect x="14.583" y="14.823" fill="#469FCC" width="2.603" height="1.736"/>
		<rect x="11.111" y="14.823" fill="#469FCC" width="2.604" height="1.736"/>
		<rect x="18.055" y="14.823" fill="#469FCC" width="2.604" height="1.736"/>
		<rect x="14.583" y="12.22" fill="#469FCC" width="2.603" height="1.736"/>
		<rect x="11.111" y="12.22" fill="#469FCC" width="2.604" height="1.736"/>
		<rect x="18.055" y="12.22" fill="#469FCC" width="2.604" height="1.736"/>
	</g>
	<g opacity="0.15">
		<rect x="11.111" y="12.22" width="2.604" height="0.434"/>
		<rect x="14.583" y="12.22" width="2.603" height="0.434"/>
		<rect x="18.055" y="12.22" width="2.604" height="0.434"/>
		<rect x="11.111" y="14.823" width="2.604" height="0.435"/>
		<rect x="14.583" y="14.823" width="2.603" height="0.435"/>
		<rect x="18.055" y="14.823" width="2.604" height="0.435"/>
		<rect x="11.111" y="17.427" width="2.604" height="0.434"/>
		<rect x="14.583" y="17.427" width="2.603" height="0.434"/>
		<rect x="18.055" y="17.427" width="2.604" height="0.434"/>
		<rect x="11.111" y="20.031" width="2.604" height="0.434"/>
		<rect x="18.055" y="20.031" width="2.604" height="0.434"/>
	</g>
	<rect x="9.81" y="10.917" opacity="0.1" width="12.151" height="0.434"/>
	<path fill="#EF4D4D" d="M22.829,10.484c0,0.239-0.194,0.434-0.434,0.434H9.375c-0.24,0-0.434-0.194-0.434-0.434V10.05
		c0-0.24,0.194-0.434,0.434-0.434h13.019c0.24,0,0.434,0.194,0.434,0.434V10.484z"/>
</g>
<g>
	<circle fill="#EACA44" cx="20.813" cy="20.229" r="4.014"/>
	<path opacity="0.2" d="M21.141,18.262c0.001-0.014,0.008-0.025,0.008-0.04v-0.334c0-0.185-0.149-0.334-0.335-0.334
		c-0.185,0-0.334,0.149-0.334,0.334v0.334c0,0.015,0.006,0.026,0.008,0.04c-0.58,0.128-1.012,0.584-1.012,1.131
		c0,0.646,0.6,1.171,1.338,1.171c0.37,0,0.669,0.225,0.669,0.502c0,0.276-0.299,0.501-0.669,0.501c-0.369,0-0.669-0.225-0.669-0.501
		c0-0.186-0.149-0.335-0.334-0.335s-0.335,0.149-0.335,0.335c0,0.544,0.428,0.998,1.004,1.129v0.376
		c0,0.185,0.149,0.334,0.334,0.334c0.186,0,0.335-0.149,0.335-0.334v-0.376c0.575-0.131,1.003-0.585,1.003-1.129
		c0-0.646-0.599-1.171-1.338-1.171c-0.369,0-0.669-0.225-0.669-0.502c0-0.276,0.3-0.502,0.669-0.502c0.37,0,0.669,0.226,0.669,0.502
		c0,0.185,0.149,0.335,0.335,0.335c0.185,0,0.334-0.15,0.334-0.335C22.151,18.846,21.721,18.39,21.141,18.262z"/>
	<path opacity="0.1" d="M20.813,16.216c-2.216,0-4.014,1.797-4.014,4.013c0,2.217,1.798,4.014,4.014,4.014
		c2.217,0,4.014-1.797,4.014-4.014C24.827,18.013,23.03,16.216,20.813,16.216z M20.813,23.573c-1.847,0-3.345-1.497-3.345-3.345
		c0-1.847,1.498-3.345,3.345-3.345c1.848,0,3.345,1.498,3.345,3.345C24.158,22.076,22.661,23.573,20.813,23.573z"/>
</g>
</svg>
