<?xml version="1.0" encoding="utf-8"?>
<!-- Generator: Adobe Illustrator 16.0.0, SVG Export Plug-In . SVG Version: 6.00 Build 0)  -->
<!DOCTYPE svg PUBLIC "-//W3C//DTD SVG 1.1//EN" "http://www.w3.org/Graphics/SVG/1.1/DTD/svg11.dtd">
<svg version="1.1" id="Capa_1" xmlns="http://www.w3.org/2000/svg" xmlns:xlink="http://www.w3.org/1999/xlink" x="0px" y="0px"
	 width="48px" height="48px" viewBox="0 0 48 48" enable-background="new 0 0 48 48" xml:space="preserve">
<path fill="#F2F2F2" d="M28.166,15.885c0,6.783-5.498,12.281-12.281,12.281l0,0c-6.783,0-12.281-5.498-12.281-12.281l0,0
	c0-6.783,5.499-12.281,12.281-12.281l0,0C22.668,3.603,28.166,9.102,28.166,15.885L28.166,15.885z"/>
<rect x="9.812" y="7.417" fill="none" width="2.721" height="1.515"/>
<polygon fill="none" points="10.4,9.74 8.229,12.361 8.229,13.497 14.119,13.497 14.119,12.361 11.945,9.74 "/>
<path fill="#5C5D5E" d="M19.44,14.19c-0.03,0.226-0.047,0.438-0.053,0.635l0.861-0.06c0.41-1.52,1.52-2.575,1.52-2.575l-1.316-0.768
	c-0.505,0.81-0.783,1.591-0.928,2.284"/>
<path fill="#00C29A" d="M19.509,13.647c-0.082-0.32-0.247-0.717-0.571-0.983c-0.625-0.514-1.608-0.348-1.608-0.348
	s0.029,0.997,0.655,1.509c0.473,0.389,1.158,0.388,1.456,0.365L19.509,13.647z"/>
<path fill="#5C5D5E" d="M19.523,13.707c-0.004-0.02-0.009-0.04-0.014-0.059"/>
<path fill="#F64341" d="M19.325,14.775c-0.256-0.075-0.509-0.163-0.764-0.25c-0.537-0.18-1.078-0.22-1.633-0.104
	c-0.351,0.072-0.667,0.191-0.956,0.359c-0.411,0.24-0.765,0.593-1.044,1.023v-0.658l0,5.916c0.233,0.533,0.52,1.041,0.854,1.526
	c0.229,0.33,0.471,0.645,0.776,0.897c0.241,0.196,0.492,0.409,0.808,0.466c0.035,0.005,0.071,0,0.108,0c0.041,0,0.083,0,0.125,0
	c0.048,0,0.098,0.006,0.149,0c0.436-0.07,0.833-0.301,1.26-0.404c0.06-0.015,0.115-0.028,0.177-0.039
	c0.152-0.032,0.312-0.05,0.472-0.052c0.006,0,0.011,0,0.017,0c0.004,0,0.01,0,0.018,0c0.049,0.001,0.098,0.006,0.148,0.009v-8.723
	L19.325,14.775z"/>
<path fill="#CC3E3E" d="M25.094,17.824c0-0.071-0.045-0.178-0.055-0.246c-0.074-0.59-0.229-1.153-0.535-1.667
	c-0.289-0.487-0.683-0.869-1.129-1.13c-0.288-0.167-0.606-0.287-0.957-0.358c-0.555-0.118-1.096-0.078-1.633,0.103
	c-0.198,0.067-0.394,0.135-0.588,0.197l-0.432,0.026v8.713c0.11,0.008,0.295,0.026,0.4,0.048c0.058,0.012,0.119,0.024,0.177,0.039
	c0.427,0.104,0.822,0.334,1.258,0.404c0.049,0.006,0.102,0,0.151,0c0.041,0,0.084,0,0.128,0c0.034,0,0.069,0.005,0.105,0
	c0.315-0.057,0.566-0.271,0.808-0.466c0.306-0.253,0.547-0.568,0.773-0.897c0.645-0.937,1.125-1.949,1.355-3.085
	c0.061-0.303,0.141-0.605,0.172-0.913C25.113,18.323,25.094,18.152,25.094,17.824z"/>
<g>
	<polygon fill="none" points="15.117,13.743 15.117,12.608 12.944,9.987 12.172,9.987 12.172,13.743 	"/>
	<polygon fill="none" points="9.228,12.608 9.228,13.743 12.172,13.743 12.172,9.987 11.398,9.987 	"/>
	<rect x="12.172" y="7.664" fill="none" width="1.36" height="1.515"/>
	<rect x="10.811" y="7.664" fill="none" width="1.361" height="1.515"/>
	<path fill="#409AC1" d="M15.833,12.206l-1.846-2.227c0.2-0.025,0.355-0.188,0.355-0.395V7.261c0-0.223-0.181-0.404-0.404-0.404
		h-1.766v0.807h1.36v1.515h-1.36v0.808h0.772l2.173,2.621v1.135v8.974h-2.945V24h3.35c0.223,0,0.404-0.182,0.404-0.404v-2.287
		l0-5.916v-2.929C15.927,12.37,15.893,12.278,15.833,12.206z"/>
	<path fill="#47ABE2" d="M9.228,22.717v-8.974v-1.135l2.171-2.621h0.773V9.179h-1.361V7.664h1.361V6.856h-1.763
		c-0.223,0-0.404,0.181-0.404,0.404v2.324c0,0.206,0.156,0.37,0.355,0.395l-1.846,2.227C8.453,12.278,8.42,12.37,8.42,12.464v11.132
		C8.42,23.818,8.601,24,8.825,24h3.347v-1.283H9.228z"/>
	<rect x="9.228" y="13.743" fill="#40ADDD" width="2.944" height="8.974"/>
	<rect x="12.172" y="13.743" fill="#347F99" width="2.945" height="8.974"/>
</g>
</svg>
