<?xml version="1.0" encoding="utf-8"?>
<!-- Generator: Adobe Illustrator 16.0.0, SVG Export Plug-In . SVG Version: 6.00 Build 0)  -->
<!DOCTYPE svg PUBLIC "-//W3C//DTD SVG 1.1//EN" "http://www.w3.org/Graphics/SVG/1.1/DTD/svg11.dtd">
<svg version="1.1" id="Capa_1" xmlns="http://www.w3.org/2000/svg" xmlns:xlink="http://www.w3.org/1999/xlink" x="0px" y="0px"
	 width="48px" height="48px" viewBox="0 0 48 48" enable-background="new 0 0 48 48" xml:space="preserve">
<path fill="#F2F2F2" d="M28.166,15.885c0,6.783-5.498,12.281-12.281,12.281l0,0c-6.783,0-12.281-5.498-12.281-12.281l0,0
	c0-6.783,5.499-12.281,12.281-12.281l0,0C22.668,3.603,28.166,9.102,28.166,15.885L28.166,15.885z"/>
<g>
	<g>
		<path fill="#E6E6E6" d="M16.663,21.218v-0.445h-3.557v0.445c0.018,2.223-0.889,2.224-0.889,2.224c0,0.245,0.198,0.444,0.444,0.444
			h4.446c0.246,0,0.445-0.199,0.445-0.444C17.553,23.441,16.646,23.441,16.663,21.218z"/>
		<path fill="#434854" d="M21.999,18.995L21.999,18.995v-8.449c0-0.491-0.398-0.89-0.89-0.89H8.66c-0.491,0-0.89,0.398-0.89,0.89
			v8.448v0.001H21.999z"/>
		<rect x="8.66" y="10.546" opacity="0.1" fill="#FFFFFF" width="12.449" height="7.559"/>
		<path fill="#E6E6E6" d="M7.771,18.995v0.89c0,0.491,0.398,0.889,0.89,0.889h12.449c0.491,0,0.89-0.397,0.89-0.889v-0.89H7.771z"/>
		<path opacity="0.1" d="M12.662,23.886h4.446c0.246,0,0.445-0.199,0.445-0.444h-5.335C12.217,23.687,12.416,23.886,12.662,23.886z"
			/>
		<circle opacity="0.1" cx="14.885" cy="19.884" r="0.445"/>
		<path opacity="0.1" fill="#FFFFFF" d="M21.109,9.656h-5.78l3.557,9.339h3.112v-0.001v-8.448
			C21.999,10.055,21.601,9.656,21.109,9.656z"/>
		<rect x="13.106" y="20.772" opacity="0.1" width="3.557" height="0.445"/>
	</g>
	<g>
		<path fill="#CECECE" d="M10.072,17.96v-5.044h9.625v5.044h0.688v-6.419c0-0.38-0.308-0.688-0.688-0.688h-9.625
			c-0.38,0-0.688,0.308-0.688,0.688v6.419H10.072z"/>
		<circle fill="#EF4D4D" cx="10.416" cy="11.885" r="0.344"/>
		<circle fill="#EACA44" cx="11.447" cy="11.885" r="0.344"/>
		<circle fill="#84BF56" cx="12.479" cy="11.885" r="0.344"/>
		<rect x="10.072" y="12.916" fill="#EAEAEA" width="9.625" height="5.044"/>
	</g>
	<g>
		<path fill="#434854" d="M22.796,23.54c0,0.254-0.205,0.46-0.458,0.46h-3.213c-0.253,0-0.458-0.206-0.458-0.46v-6.424
			c0-0.253,0.205-0.459,0.458-0.459h3.213c0.253,0,0.458,0.206,0.458,0.459V23.54z"/>
		<rect x="19.125" y="17.575" opacity="0.3" fill="#EDEDED" width="3.213" height="5.048"/>
		<circle opacity="0.1" fill="#FFFFFF" cx="20.731" cy="23.311" r="0.459"/>
		<path opacity="0.1" fill="#FFFFFF" d="M22.338,16.657h-2.753l3.211,5.277v-4.818C22.796,16.863,22.591,16.657,22.338,16.657z"/>
	</g>
</g>
<text transform="matrix(1 0 0 1 10.7598 15.1426)"><tspan x="0" y="0" font-family="'Consolas'" font-size="1.5576">01 &gt;PRINT</tspan><tspan x="0" y="1.273" font-family="'Consolas'" font-size="1.5576">02 &gt;HOLA</tspan></text>
</svg>
