<?xml version="1.0" encoding="utf-8"?>
<!-- Generator: Adobe Illustrator 16.0.0, SVG Export Plug-In . SVG Version: 6.00 Build 0)  -->
<!DOCTYPE svg PUBLIC "-//W3C//DTD SVG 1.1//EN" "http://www.w3.org/Graphics/SVG/1.1/DTD/svg11.dtd">
<svg version="1.1" id="Capa_1" xmlns="http://www.w3.org/2000/svg" xmlns:xlink="http://www.w3.org/1999/xlink" x="0px" y="0px"
	 width="48px" height="48px" viewBox="0 0 48 48" enable-background="new 0 0 48 48" xml:space="preserve">
<path fill="#F2F2F2" d="M28.166,15.885c0,6.783-5.498,12.281-12.281,12.281l0,0c-6.783,0-12.281-5.498-12.281-12.281l0,0
	c0-6.783,5.499-12.281,12.281-12.281l0,0C22.668,3.603,28.166,9.102,28.166,15.885L28.166,15.885z"/>
<line fill="none" x1="15.851" y1="12.578" x2="15.85" y2="12.469"/>
<g>
	<path fill="none" d="M17.727,15.234c0,0.256,0.208,0.464,0.463,0.464h1.891v-0.927H18.19
		C17.934,14.771,17.727,14.978,17.727,15.234z"/>
	<rect x="18.775" y="10.11" fill="none" width="1.306" height="2.989"/>
	<rect x="20.081" y="10.11" fill="none" width="1.3" height="2.989"/>
	<path fill="none" d="M21.966,15.698c0.256,0,0.463-0.208,0.463-0.464s-0.207-0.463-0.463-0.463h-1.885v0.927H21.966z"/>
	<path fill="#9C27B0" d="M22.423,13.167V10.11h0.029c0.288,0,0.521-0.233,0.521-0.521s-0.233-0.521-0.521-0.521h-0.55h-1.821v1.042
		h1.3V13.1h-1.3v1.671h1.885c0.256,0,0.463,0.207,0.463,0.463s-0.207,0.464-0.463,0.464h-1.885v6.976h1.333v0.111
		c0,0.275,0.224,0.499,0.498,0.499c0.275,0,0.499-0.224,0.499-0.499v-0.177C23.324,22.376,24,21.55,24,20.564v-5.355
		C24,14.227,23.331,13.403,22.423,13.167z"/>
	<path fill="#B233CC" d="M18.19,15.698c-0.256,0-0.463-0.208-0.463-0.464s0.208-0.463,0.463-0.463h1.891V13.1h-1.306V10.11h1.306
		V9.068h-1.827h-0.55c-0.288,0-0.521,0.234-0.521,0.521s0.234,0.521,0.521,0.521h0.029v3.057c-0.908,0.236-1.577,1.06-1.577,2.041
		v5.355c0,0.986,0.676,1.812,1.589,2.044v0.177c0,0.275,0.224,0.499,0.499,0.499s0.499-0.224,0.499-0.499v-0.111h1.339v-6.976H18.19
		z"/>
</g>
<g>
	<g>
		<g>
			<g>
				<path fill="#FBC8C8" d="M10.195,21.745c0,0,0.747-2.054-0.481-3.44c-0.067-0.076-0.066-0.19,0.002-0.265
					c0.424-0.464,1.177-0.454,2.259,1.53c0.282,0.518,0.872,0.49,1.384,0.198c0.975-0.557,2.381-2.328,3.855-1.896
					c0.067,0.02,0.119,0.073,0.136,0.141c0.018,0.068-0.002,0.14-0.052,0.188l-5.126,5.126L10.195,21.745z"/>
			</g>
		</g>
	</g>
	<g>
		<g>
			<g>
				<path fill="#CCCCCC" d="M20.081,17.593c0,0.11-0.088,0.198-0.198,0.198H7.625c-0.11,0-0.198-0.088-0.198-0.198v-0.395
					C7.427,17.088,7.515,17,7.625,17h12.258c0.11,0,0.198,0.088,0.198,0.198V17.593z"/>
			</g>
		</g>
	</g>
	<g>
		<g>
			<g>
				<path fill="#FFFFFF" d="M13.754,11.464c0.206,0,0.402,0.009,0.593,0.023v-0.616c0-0.109-0.088-0.198-0.197-0.198h-0.791
					c-0.109,0-0.197,0.089-0.197,0.198v0.616C13.352,11.473,13.548,11.464,13.754,11.464z"/>
			</g>
		</g>
	</g>
	<g>
		<g>
			<g>
				<path fill="#C6CACC" d="M8.218,17c0,0-0.198-5.536,5.536-5.536S19.29,17,19.29,17H8.218z"/>
			</g>
		</g>
	</g>
	<g>
		<g>
			<g>
				<polygon fill="#3E3E3F" points="10.195,21.745 8.218,23.327 12.172,23.327 				"/>
			</g>
		</g>
	</g>
	<g>
		<g>
			<g>
				<path fill="#FFFFFF" d="M13.754,11.464C8.02,11.464,8.218,17,8.218,17h5.536V11.464z"/>
			</g>
		</g>
	</g>
	<g>
		<g>
			<g>
				<path fill="#FBC8C8" d="M10.195,21.745c0,0,0.747-2.054-0.481-3.44c-0.067-0.076-0.066-0.19,0.002-0.265
					c0.424-0.464,1.177-0.454,2.259,1.53c0.282,0.518,0.872,0.49,1.384,0.198c0.975-0.557,2.381-2.328,3.855-1.896
					c0.067,0.02,0.119,0.073,0.136,0.141c0.018,0.068-0.002,0.14-0.052,0.188l-5.126,5.126L10.195,21.745z"/>
			</g>
		</g>
	</g>
	<g>
		<g>
			<g>
				<path fill="#F7B4B4" d="M17.298,18.201c0.05-0.049,0.069-0.121,0.052-0.188c-0.017-0.067-0.069-0.121-0.136-0.141
					c-1.475-0.431-2.881,1.34-3.855,1.896c-0.512,0.292-1.102,0.32-1.384-0.198c-1.083-1.983-1.835-1.994-2.259-1.53
					c-0.068,0.075-0.069,0.188-0.002,0.265c1.229,1.386,0.481,3.44,0.481,3.44l0.539,0.432l6.125-3.536L17.298,18.201z"/>
			</g>
		</g>
	</g>
</g>
</svg>
