<?xml version="1.0" encoding="utf-8"?>
<!-- Generator: Adobe Illustrator 16.0.0, SVG Export Plug-In . SVG Version: 6.00 Build 0)  -->
<!DOCTYPE svg PUBLIC "-//W3C//DTD SVG 1.1//EN" "http://www.w3.org/Graphics/SVG/1.1/DTD/svg11.dtd">
<svg version="1.1" id="Capa_1" xmlns="http://www.w3.org/2000/svg" xmlns:xlink="http://www.w3.org/1999/xlink" x="0px" y="0px"
	 width="48px" height="48px" viewBox="0 0 48 48" enable-background="new 0 0 48 48" xml:space="preserve">
<path fill="#F2F2F2" d="M28.166,15.885c0,6.783-5.498,12.281-12.281,12.281l0,0c-6.783,0-12.281-5.498-12.281-12.281l0,0
	c0-6.783,5.499-12.281,12.281-12.281l0,0C22.668,3.603,28.166,9.102,28.166,15.885L28.166,15.885z"/>
<line x1="15.851" y1="12.578" x2="15.85" y2="12.469"/>
<polyline fill="#AAB4B5" points="15.603,12.578 15.604,12.645 13.593,12.645 12.851,13.594 13.341,13.978 13.896,13.268 
	17.407,13.268 17.916,14.248 18.467,13.962 18.032,13.123 19.242,11.763 18.776,11.349 17.624,12.645 15.852,12.645 15.851,12.578 
	"/>
<g>
	<g>
		<path fill="#E64A19" d="M20.041,16.298l0.34-0.324c0.12-0.115,0.071-0.317-0.088-0.363l-1.967-0.577
			c-0.16-0.046-0.31,0.097-0.27,0.258l0.483,1.991c0.039,0.161,0.238,0.22,0.359,0.105l0.282-0.269
			c0.104,0.267,0.171,0.548,0.201,0.841c0.056,0.537-0.02,1.083-0.221,1.58c-0.169,0.418-0.426,0.802-0.749,1.119
			c-0.081,0.081-0.087,0.21-0.012,0.296l0.453,0.522c0.082,0.093,0.223,0.1,0.313,0.014c0.447-0.431,0.802-0.956,1.035-1.529
			c0.27-0.667,0.372-1.398,0.297-2.118C20.44,17.298,20.287,16.78,20.041,16.298z"/>
	</g>
	<path fill="#FF5722" d="M11.424,20.335l-0.35,0.334c-0.123,0.118-0.073,0.326,0.091,0.374l2.024,0.593
		c0.164,0.048,0.319-0.099,0.278-0.265l-0.498-2.049c-0.04-0.167-0.245-0.227-0.37-0.108l-0.29,0.277
		c-0.107-0.275-0.176-0.565-0.208-0.866c-0.057-0.553,0.021-1.114,0.228-1.625c0.174-0.431,0.439-0.825,0.771-1.152
		c0.083-0.083,0.089-0.216,0.012-0.304l-0.466-0.538c-0.083-0.096-0.23-0.102-0.323-0.014c-0.46,0.443-0.826,0.983-1.065,1.574
		c-0.278,0.686-0.383,1.438-0.306,2.18C11.013,19.307,11.171,19.84,11.424,20.335z"/>
</g>
<path fill="#19A52D" d="M9.937,9.309C9.789,8.932,9.516,8.62,9.013,8.654C8.586,8.683,8.638,9.018,8.828,9.312
	C8,9.422,7.897,10.531,7.922,10.703c0,0,0.969-0.906,1.25-0.516c-0.938,0.297-1.037,1.709-0.828,1.828c0,0,0.547-0.875,1.442-0.856
	l0.021,0.045c0.003,0,0.001-0.005,0.005-0.004c0.232,0.021,0.443,0.109,0.673,0.124"/>
<path fill="#12701D" d="M10.39,11.251c0.038-0.002,0.046,0.028,0.039,0.057c0.555-0.242,1.159-0.322,1.331-0.074
	c0,0,0.028-1.121-1.143-1.257c0.523-0.411,0.86-0.172,1.081-0.177c0,0-0.647-0.71-1.118-0.755c0.126-0.344,0.118-0.608-0.231-0.577
	C9.962,8.504,9.796,8.847,9.733,9.235"/>
<path fill="#493610" d="M11.597,15.353l0.367-0.126l-0.171-0.983l-0.198,0.063l-0.151-0.866l-0.192,0.062l-0.138-0.798l-0.138,0.043
	l-0.126-0.725l-0.143,0.046l-0.107-0.625l-0.068,0.022l-0.009-0.05c-0.06-0.002-0.463-0.069-0.384-0.056"/>
<path fill="#684E15" d="M10.266,11.386c-0.135-0.024-0.268-0.059-0.408-0.077l0.153,0.321l-0.17,0.054l0.274,0.572l-0.144,0.046
	l0.318,0.665l-0.138,0.044l0.35,0.73l-0.106,0.034l0.379,0.793l-0.199,0.062l0.44,0.922l0.583-0.202"/>
<g>
	<path fill="none" d="M15.853,19.834c0.137-0.021,0.258-0.084,0.341-0.18c0.09-0.101,0.132-0.227,0.132-0.383
		c0-0.125-0.029-0.223-0.082-0.289c-0.112-0.135-0.322-0.201-0.52-0.247v1.101c0.01,0,0.018,0.006,0.028,0.006
		C15.786,19.842,15.821,19.84,15.853,19.834z"/>
	<path fill="none" d="M15.545,16.806c-0.098,0.029-0.185,0.079-0.243,0.144c-0.074,0.083-0.108,0.176-0.108,0.292
		c0,0.114,0.029,0.206,0.088,0.277c0.018,0.021,0.038,0.042,0.06,0.059c0.099,0.083,0.236,0.127,0.384,0.164v-0.959
		c-0.002,0-0.003-0.001-0.005-0.001C15.659,16.782,15.601,16.79,15.545,16.806z"/>
	<path fill="#00BCD4" d="M15.269,19.621c-0.05-0.064-0.119-0.201-0.159-0.488c-0.015-0.099-0.099-0.169-0.195-0.169
		c-0.011,0-0.022,0.001-0.034,0.002l-0.621,0.108c-0.1,0.018-0.17,0.107-0.163,0.208c0.021,0.306,0.104,0.573,0.242,0.79
		c0.141,0.222,0.313,0.386,0.512,0.488c0.113,0.058,0.233,0.104,0.36,0.14v0.254c0,0.11,0.088,0.198,0.198,0.198h0.317v-1.316
		C15.541,19.828,15.371,19.753,15.269,19.621z"/>
	<path fill="#02A8B5" d="M16.093,16.928c0.062,0.069,0.106,0.183,0.128,0.332c0.015,0.098,0.099,0.168,0.195,0.168
		c0.01,0,0.019-0.001,0.03-0.002l0.635-0.095c0.107-0.016,0.181-0.115,0.167-0.223c-0.055-0.387-0.221-0.698-0.492-0.923
		c-0.139-0.116-0.314-0.205-0.511-0.263v-0.307c0-0.109-0.088-0.198-0.197-0.198h-0.323v1.366
		C15.876,16.784,16.011,16.836,16.093,16.928z"/>
	<path fill="#02A8B5" d="M17.256,18.701c-0.069-0.17-0.166-0.32-0.291-0.445c-0.123-0.123-0.278-0.226-0.465-0.309
		c-0.174-0.076-0.363-0.114-0.545-0.151c-0.081-0.016-0.155-0.036-0.23-0.054v0.994c0.197,0.046,0.408,0.112,0.52,0.247
		c0.053,0.066,0.082,0.165,0.082,0.289c0,0.156-0.042,0.282-0.132,0.383c-0.083,0.095-0.205,0.159-0.341,0.18
		c-0.032,0.005-0.067,0.007-0.1,0.007c-0.01,0-0.018-0.005-0.028-0.006v1.316h0.326c0.109,0,0.197-0.088,0.197-0.198v-0.243
		c0.275-0.077,0.515-0.217,0.7-0.411c0.271-0.285,0.407-0.641,0.407-1.061C17.355,19.049,17.321,18.867,17.256,18.701z"/>
	<path fill="#00BCD4" d="M15.341,17.578c-0.021-0.017-0.042-0.038-0.06-0.059c-0.06-0.071-0.088-0.163-0.088-0.277
		c0-0.115,0.035-0.208,0.108-0.292c0.059-0.065,0.146-0.115,0.243-0.144c0.056-0.016,0.114-0.024,0.175-0.024
		c0.002,0,0.003,0.001,0.005,0.001v-1.366h-0.178h-0.142c-0.109,0-0.197,0.088-0.197,0.198v0.302
		c-0.217,0.061-0.406,0.16-0.555,0.29c-0.313,0.274-0.473,0.635-0.473,1.073c0,0.124,0.014,0.242,0.042,0.354
		c0.027,0.112,0.067,0.216,0.121,0.315c0.111,0.202,0.27,0.363,0.475,0.478c0.289,0.162,0.57,0.233,0.879,0.302
		c0.009,0.002,0.018,0.006,0.027,0.008v-0.994C15.578,17.705,15.44,17.66,15.341,17.578z"/>
</g>
<g>
	<path fill="#9C27B0" d="M15.653,8.171c-1.359,0.013-2.425,0.902-2.417,1.714c0.004,0,0.008,0,0.012,0
		c0.022,0.165,0.163,0.292,0.333,0.291c0.135-0.001,0.25-0.082,0.301-0.198c0.055,0.115,0.171,0.193,0.305,0.192
		c0.128-0.001,0.236-0.075,0.292-0.18c0.049,0.127,0.171,0.217,0.315,0.215c0.135-0.001,0.249-0.082,0.301-0.198
		c0.054,0.114,0.171,0.193,0.305,0.192c0.066-0.001,0.126-0.021,0.178-0.055l0.001,0.166h0.116V8.174
		C15.683,8.174,15.668,8.171,15.653,8.171z"/>
	<path fill="#7A228C" d="M18.16,9.836c-0.008-0.802-1.122-1.656-2.462-1.663v2.136h0.13l-0.001-0.168
		c0.053,0.033,0.114,0.052,0.181,0.051c0.135-0.001,0.25-0.083,0.302-0.198c0.054,0.115,0.171,0.194,0.305,0.192
		c0.128-0.002,0.237-0.075,0.293-0.18c0.049,0.127,0.17,0.217,0.314,0.216c0.136-0.002,0.249-0.083,0.302-0.199
		c0.054,0.115,0.17,0.193,0.304,0.192c0.186-0.002,0.334-0.154,0.332-0.338c0-0.014-0.003-0.027-0.005-0.041H18.16z"/>
	<polygon fill="#CECECE" points="15.603,12.578 15.698,12.536 15.698,10.409 15.583,10.409 	"/>
	<polygon fill="#7C7B7C" points="15.85,12.469 15.829,10.409 15.698,10.409 15.698,12.536 	"/>
</g>
<path fill="#12701D" d="M21.694,10.464c0.116-0.294,0.33-0.539,0.723-0.512c0.333,0.022,0.293,0.285,0.145,0.515
	c0.648,0.085,0.729,0.954,0.709,1.088c0,0-0.758-0.709-0.978-0.403c0.734,0.232,0.812,1.338,0.648,1.431c0,0-0.428-0.685-1.128-0.67
	l-0.017,0.035c-0.002,0-0.001-0.004-0.004-0.003c-0.182,0.017-0.347,0.085-0.526,0.097"/>
<path fill="#19A52D" d="M21.339,11.984c-0.03-0.001-0.036,0.022-0.031,0.045c-0.434-0.189-0.907-0.252-1.041-0.058
	c0,0-0.022-0.877,0.894-0.983c-0.409-0.322-0.673-0.135-0.845-0.139c0,0,0.506-0.556,0.875-0.591
	c-0.099-0.269-0.092-0.476,0.181-0.451c0.302,0.027,0.432,0.295,0.481,0.599"/>
<path fill="#684E15" d="M20.396,15.193l-0.287-0.099l0.134-0.769l0.155,0.05l0.118-0.678l0.151,0.048l0.108-0.625l0.108,0.034
	l0.099-0.567l0.112,0.036l0.084-0.49l0.054,0.018l0.007-0.039c0.047-0.001,0.362-0.054,0.3-0.043"/>
<path fill="#493610" d="M21.437,12.089c0.105-0.019,0.209-0.046,0.319-0.06l-0.12,0.251l0.133,0.042l-0.214,0.448l0.112,0.036
	l-0.249,0.521l0.107,0.035l-0.273,0.571l0.083,0.026L21.04,14.58l0.156,0.049l-0.344,0.722l-0.456-0.158"/>
<path fill="#B3E5F3" d="M9.896,23.612l0.555,0.834c0.025-0.02,2.688-1.753,4.799-0.772c1.341,0.628,2.604,0.782,3.649,0.736
	c1.595-0.07,2.679-0.606,2.752-0.643L21.2,22.875c-0.023,0.014-2.577,1.271-5.53-0.105C13.056,21.554,10.022,23.529,9.896,23.612z"
	/>
</svg>
